<!-- Generator: Adobe Illustrator 17.1.0, SVG Export Plug-In . SVG Version: 6.00 Build 0) --><svg xmlns="http://www.w3.org/2000/svg" xmlns:xlink="http://www.w3.org/1999/xlink" version="1.1" id="Layer_1" x="0px" y="0px" viewBox="0 0 200 140" xml:space="preserve"><g><path d="M178.2,87.7c0.2-0.2,0.2-0.4,0.2-0.5c0.1-1.1-2.2-1.9-6.9-2.4c0.4-2.4,1-6,1.8-10.9c1.3-0.6,3.1-1.7,5.3-3.1l3.9-2.4 c0.7-0.5,1.2-0.8,1.2-1c-0.1,0-0.6,0.1-1.4,0.4c-1.3,0.9-2.6,1.6-3.8,2.3c-2.4,1.6-4.1,2.6-5,2.9c0-0.4,0-0.8,0.2-1.4 c0.7-0.9,1.6-2.2,2.8-4c2.3-3.6,4.3-6.4,6.5-8.5c0.2,0,0.5,0.1,0.7,0.1c0.7-0.1,1-0.6,1-1.6c0-0.9-0.5-1.4-1.3-1.4 c-0.6,0-1.1,0.5-1.6,1.3c-0.5,0.9-0.8,1.3-1,1.4c-0.6,0.9-1.6,2.4-3.1,4.6c-1.4,2.2-2.5,3.7-3.3,4.8c0.6-3,1.3-5.8,2.1-8.4 c0.2-0.6,0.6-1.8,1.2-3.6c0.7-1.8,1.1-3.2,1.4-4.3c-0.2-0.7-0.7-1-1.3-1c-0.5,0-1,0.6-1.4,1.9c-2.1,5.8-4,14.9-5.7,27.1 c-0.3,1.7-0.5,3.3-0.7,4.6c-0.6-0.1-1.1-0.1-1.7-0.2c0.5-1.8,0.9-3.5,1.2-5.2c1.1-5.5,1.2-9.1,0.4-11c1.3-1.4,1.6-6.9-1.4-5.9 c-0.7,0.2-1.3,0.7-1.8,1.4c-0.5,0.7-1,1.6-1.5,2.7c0,0,0,0.1,0,0.1c-0.2,0.3-0.5,0.5-0.6,0.7l-1.6,1.9l-1.5,2 c-0.3,0.3-1.2,1.7-1.6,1.9c0.2-0.9,0.5-2.1,1.1-3.6c0-0.2,0.2-0.7,0.6-1.6c0.3-0.8,0.5-1.5,0.5-2.2c-0.4-0.7-0.9-0.9-1.5-0.4 c-0.4,0.3-0.8,1.3-1.3,3l-1.1,1.9c-1.2,2.3-2,3.7-2.4,4.1c0-1.3,0.2-3.1,0.6-5.3c0.3-2.2,0.5-3.8,0.6-4.8c0.3-1.8,0.2-2.8-0.3-3.1 c-0.4,0-0.7,0-0.8,0.1c-0.7,0.8-1.7,2.2-2.8,4.1c-1.1,1.9-1.9,3.3-2.4,4c0-0.3,0.3-0.8,0.7-1.5c0.7-1.3,1-1.6,0.1-2.7h-0.1 c-0.2-0.1-0.4-0.1-0.5,0h-0.1c-0.4,0.2-0.7,0.7-1,1.4c-0.8,1.1-2.1,2.7-2.7,3.6c-0.3,0.3-0.7,0.9-1.3,1.6c-1.1,1.5-2,2.6-3.3,3.2 c-0.4-1.4-0.1-3.5,1-6.3c0.2,0,0.6,0,1-0.2c1-0.4,1.9-1.4,2.6-3c0.7-1.6,0.8-2.9,0.2-3.9c-0.1,0-0.5-0.1-0.7-0.1 c-1.1,0.5-2.2,2.1-3.4,4.6c-0.7,0.1-1,1.2-0.8,1.9c-0.8,3.4-1.2,5.5-1.1,6.5c0.1,1,0.5,1.6,1.2,1.8c0.7-0.1,1.4-0.4,1.7-0.8 c0.3-0.3,1-1.1,1.2-1.3l3.8-5.3c-0.4,2-0.1,3.1,0.7,3.3c0.5-0.1,1.1-0.7,1.8-1.9c0.3-0.5,0.7-1.3,1.3-2.4c1.1-2.2,2-3.5,3-4.8 c0,0.3-0.2,1.4-0.6,3.2c-0.7,3.6-0.9,5.9-0.7,8.2c0,1.1,0.3,1.7,1,1.8c1-0.2,1.2-1.4,1.7-2.1l1.4-2.8c-0.1,0.8-0.1,1.4-0.1,1.9 c0.1,0.9,0.5,1.3,1,1.4c0.5,0,1.2-0.7,2.1-1.9c0.7-0.8,1.2-1.6,1.6-2.4l0.9-1.1c-0.3,0.7-0.7,1.8-1,3.1c-0.3,1.2-1.3,3.3,0.4,3.8 c0.5,0,0.8-0.2,1.2-0.5c0.3-0.4,0.4-0.5,0.7-1l0.3-0.4l1.7-2.5c0.5-0.2,1-0.7,1.8-1.4c0,3.7-0.8,8.3-2.3,14 c-6.4-0.5-14.7-0.8-24.8-0.7c-5.1,0.1-10.1,0.3-15,0.5c-2.8-1-5.7-1.8-8.5-2.6c0.4-1.4,1-3.6,1.9-6.5c2.9-1.9,7.1-4.7,12.5-8.4 c5.4-3.8,8.9-6.2,10.5-7.3l3.4-2.2c1.9-1.2,3.1-2.1,3.8-2.6c0.7-0.5,1.7-1.2,3.1-2.2c2.8-2,4.7-3.5,6.6-5.3c2.5-2.2,3.9-4.1,4.3-6 v-1.5c-0.7-2.2-3.2-3.2-7.6-3c-4.4,0.1-9.8,1.2-16.2,3.3c-8.6,2.8-17.5,6.8-26.9,12.1c-3.4,2-7.3,4.7-11.6,8.1 c-0.7,0.5-1.7,1.4-3.1,2.6c-1.7,1.4-2.5,2.5-2.4,3.2c0.2,0.9,1,1.1,2.4,0.8c0.6-0.2,2.1-1,4.5-2.2c2.4-1.2,4.3-2.1,5.8-2.5 c0.1,0,0.7,0.5,1.3,0.3c0.7-0.3,1-1,1-2.1c-0.1-0.3-0.4-0.6-0.8-1c-1.2,0-2.3,0.2-3.3,0.5c-1,0.3-2,0.8-3.1,1.4 c-1.1,0.6-2,1.1-2.6,1.3c6.2-5.7,14.5-11,24.9-15.8c4.8-2.2,9.7-4,14.8-5.6c4.4-1.2,7.1-1.9,8.1-2.1c3.9-0.8,7-1.1,9.3-1 c2.7,0.2,4.1,1,4.2,2.4c0,0.7-0.5,1.7-1.5,3c-1.1,1.2-1.9,2-2.4,2.4c-2.4,2.1-7.7,6.1-16,12c-1.6,1.1-3.9,2.7-6.8,4.8 c-5.9,4.3-10.7,7.7-15.1,10.5c3.1-8.6,5.6-14.7,7.4-18.2l1.5-2.8c1.1-1.4,1.6-2.4,1.5-2.8c-0.2-0.6-0.6-1-1.4-1.1 c-0.7,0.2-1.5,1-2.4,2.6c-0.5,0.8-1.2,1.9-1.8,3.1c-3.4,7.1-6.1,14.2-8.2,21.5c-3.6,2.4-6.3,4.1-7.9,5c-5.7-0.3-10.1,0.5-13.3,2.5 c-2,1.2-2.9,2.5-2.6,3.7c0.2,0.3,0.5,0.5,0.8,0.7c-7,0.9-13.9,2-20.5,3.3c0.7-5.6,1.6-12.3,2.6-20.2c1.7-1,3.5-1.9,5.5-2.8 c0.4-0.4,1.5-0.3,1.5-1.2c-0.4-0.7-1.2-0.1-1.6,0.1l-1.8,0.8c-0.3,0.1-0.8,0.4-1.6,0.7c-0.8,0.4-1.4,0.7-1.8,0.8 c1.4-10.5,3.9-21.7,7.5-33.5c0.2-0.1,0.6-1,1.1-2.6c0.3-0.8,0.4-1.4,0.2-1.7C86,29.7,84.8,29.4,84,30c-1,1.6-2,4.6-3.1,8.8 c-1.9,6.6-3.7,16.8-5.4,30.7c-1.4,0.7-3.4,1.9-6,3.4c-2.6,1.5-4.4,2.6-5.5,3.1c1.4-9.6,3.3-17.7,5.4-24.4c0.7-0.3,1.1-1,1.2-2.1 c0-1.1-0.4-1.7-1.3-1.7h-0.3c-0.8,0.1-1.4,0.9-1.9,2.4C64.7,56,63,65,62,77.3c-6.1,3.8-11.1,7.1-14.7,9.7c2-3.4,4-7,5.9-11l4.9-3.2 c0.4-0.4,1.4-0.6,1.4-1.4c-0.3-0.2-0.7,0-1.4,0.5l-1.4,0.8c-0.4,0.2-2.2,1.5-2.8,1.8c2.5-5.3,4.3-10,5.4-14c0.9-3.2,1.4-6,1.5-8.3 c0.1-3-0.6-5.4-2.2-7.2c-1.6-1.8-3.8-2.5-6.7-2.3c-3.4,0.2-7.4,1.5-12.2,4c-3.4,1.8-6.7,3.8-9.8,6.2c-5.6,4.1-9.8,7.9-12.5,11.7 c0,0.1-0.7,1.1-0.8,1.2c0,0.2-0.6,1-0.7,1.3c-0.3,0.8-0.7,2-0.4,3.3c0.2,0.4,0.4,0.7,0.7,1.1c0.5,0.7,2.1,0.9,4.7,0.6 c2.6-0.3,4.3-0.4,5.1-0.2c0.3,0.1,1,0.9,1.5,0.9c0.6-0.1,0.9-0.5,0.9-1.1c0-0.5-0.4-0.8-1.2-1c-1.1-0.3-1.7-0.5-1.9-0.5 c-0.9,0-2.3,0-4.3,0.1c-1.9,0.1-3.1-0.1-3.6-0.6c0.2-1.2,1.1-2.9,2.7-5.1c0.8-1,2.1-2.3,3.8-4.1c8-7,15.1-11.7,21.3-14.1 c3.9-1.5,7.2-1.9,9.8-1.2c0.8,0.5,1.3,0.9,1.7,1.2c1.5,1.6,1.9,4.8,1.1,9.6c-0.4,3.1-1.7,6.9-2.5,9.5c-0.3,0.8-0.7,1.9-1.2,3.1 c-0.5,1.2-0.9,2.2-1.1,2.7c-0.2,0.6-0.7,1.6-1.2,2.9c-0.6,1.4-1,2.2-1.2,2.6c-8.2,6.1-15.2,13-21.1,20.7c-1.5,1.9-2.5,3.3-3,4.1 c-0.5,1-1,2.1-1.4,3.6c-0.4,1.4,0,2.6,1.5,2.7c1.3,0.1,3-0.6,5.2-2.2c1.9-1.3,3.8-3.1,5.8-5.4c0.1,0.1,0.2,0.2,0.3,0.3 c0.3,0.2,0.6,0.4,0.9,0.5c0.3,0.1,0.7,0.2,1.4,0.4c0.6,0.2,1,0.3,1.3,0.4c0.2,0.1,0.5,0.2,0.9,0.3c0.5,0.2,0.9,0.3,1.2,0.3 c0.9,0,1.6-0.3,2.1-0.9c0.5-0.6,0.6-1.2,0.2-1.8c10-3,18.9-5.4,26.8-7.2c-0.9,9-1.5,14.2-1.5,15.5c0,1.3,0.2,2,0.6,2.2 c0.5-0.1,0.6-0.4,0.6-0.7c0-0.3-0.1-1-0.1-1.2c0-0.6,0.2-1.5,0.3-2.8c0.1-1.2,0.2-1.9,0.2-2.1c0.3-2.8,0.8-6.5,1.4-11.2 c5.9-1.4,11.1-2.4,15.7-3.1c8.5-1.4,17-2.4,25.5-3.1c0,0.2-0.1,0.5-0.2,0.7c-0.5,2-0.7,3.4-0.9,4.3c-0.1,0.9-0.3,2.2-0.4,3.8 c0,0.3,0,0.5-0.1,0.8c-0.7,0.2-1.4,0.3-2.1,0.5c-0.1,0.1-0.4,0.1-0.9,0.3c-0.5,0.1-0.9,0.2-1.2,0.3c-0.3,0.1-0.5,0.2-0.8,0.4 c-0.3,0.2-0.5,0.4-0.5,0.7c0.2,0.5,1.7,0.9,4.5,1.2c0.2,0,0.5,0,1,0.1c0,0,0,0.1,0,0.1l0.1,0.2c0.1,0.2,0.2,0.4,0.2,0.4 c0,0,0.2,0.6,0.3,0.6c0.2,0.2,0.6,0.3,1,0.2c0.2,0,0.2-0.3,0.1-0.8c-0.1-0.3-0.2-0.5-0.3-0.7c0,0,0,0,0,0c0.2,0,0.4,0,0.7,0 c0.3,0,0.5,0,0.7,0s0.3,0,0.4-0.1c0.2-0.1,0.3-0.2,0.3-0.4c-0.2-0.2-0.9-0.4-2.1-0.4c0-0.5,0-1,0.1-1.6c2.1-0.4,4.6-0.9,7.5-1.4 c7.3-1.1,14-2,20.1-2.8c1.1,0.5,2.3,1,3.4,1.5c1,0.5,2.4,1.2,4.3,2.1c0.5,0.3,1.2,0.7,2.2,1.1c1.1,0.8,1.9,0.8,2.2,0.1 c0-0.3-0.1-0.5-0.2-0.7c-0.3-0.4-1.4-0.8-1.5-0.8c-0.9-0.4-2.4-1.2-4.8-2.4c-0.9-0.5-1.8-0.9-2.6-1.3c5.7-0.7,10.9-1.3,15.6-1.8 c1.3-0.1,2.4-0.3,3.4-0.4c-1,3-2.1,5.8-3.3,8.2c0,0-0.2,0.4-0.6,1c-0.6,1.1-1,1.5-1.8,1.7c-0.2,0-0.4-0.2-0.6-0.5 c-0.2-0.4-0.5-0.5-0.9-0.4c-0.5,0.9,0.6,2,1.6,2.1c1,0,2-0.9,3.1-2.5c1.1-1.8,2.5-5.1,4.1-9.8c1.4-0.2,2.5-0.3,3.1-0.4 c0,0,0,0.1,0,0.1c0,0.5,0.3,0.8,0.7,0.7c0.3,0.1,0.4-0.4,0.4-0.9c1.1-0.1,2.4-0.2,3.9-0.5c0.1,0,0.3,0,0.7-0.1 c0.4-0.1,0.7-0.2,1-0.2c0.2-0.1,0.5-0.1,0.9-0.3C177.8,88,178.1,87.8,178.2,87.7z M146.4,62.6C146.4,62.6,146.5,62.6,146.4,62.6 c-0.2,1.3-1,2.4-2.2,3.3C145,64.5,145.7,63.4,146.4,62.6z M167.2,69.6c-0.2,0.5-0.7,1.1-1.4,1.9c-0.7,0.9-1.1,1.4-1.2,1.6 c1.4-3.7,2.7-6.3,3.8-7.9C168.4,67,167.7,68.8,167.2,69.6z M30.9,104.6c-0.2,0.1-0.5,0.4-1.1,0.8c-1.2,0.8-2.1,1.2-3.2,1 c-0.2-0.5-0.2-1.1,0-1.6c0.3-1.1,1.3-2.6,1.4-3.1c0.1-0.2,0.5-0.7,1.2-1.7c0.7-1,1.2-1.6,1.5-2.1c1.7-2.3,3.7-4.6,5.8-6.9 c5.1-5.4,9.5-9.5,13.3-12.4l0.1-0.1v-0.2c0,0,0.1,0,0.1,0.1c-3.3,6.5-6.5,11.9-9.8,16.1C37.4,98.4,34.3,101.7,30.9,104.6z M45.3,97.2c-1.9,0.4-3.1,0.8-3.7,0.9c-0.2,0.1-0.5,0.2-0.9,0.2c-0.4,0.1-0.8,0.1-1.1,0.1c-0.1,0-0.2,0-0.2,0 c1-1.3,2.1-2.6,3.1-4.1c0.7-1,1.5-2.1,2.2-3.2c0.4,0.4,1,0.5,1.6,0.4c0.5-0.2,0.9-0.8,1.1-1.2c0.6-0.5,1.7-1.4,3.4-2.9 c1.7-1.4,2.9-2.4,3.8-3.1c0.9-0.7,2-1.5,3.4-2.5c1.4-1,2.7-1.8,3.9-2.5c-0.2,3.4-0.2,5.7-0.1,6.9c0,0.2,0,1.3,0,1.6 c0,0.3,0.1,1.1,0.2,1.4c0.2,1.1,0.5,2.2,1.5,2.6c0.7,0,1.3-0.4,1.9-1.4c0.6-0.9,0.7-1.5,0.4-1.9c-0.5,0-0.8,0.3-1.2,0.9 c-0.4,0.6-0.7,1-1,1c-0.4-1.5-0.5-4.6-0.4-6.1c0-0.8,0.1-1.9,0.2-3.4l0.2-3c5.4-3.4,9.3-5.7,11.5-6.9L73,90.5 c-1.8,0.4-3.7,0.7-5.5,1.1C58.9,93.6,51.5,95.5,45.3,97.2z M120.9,84.4c-1.1,0.1-2.1,0.1-3.2,0.2c0.1-0.3,0.2-0.7,0.3-1 C119,83.9,119.9,84.1,120.9,84.4z M114.7,78.6c1.2-0.7,2.2-1.3,2.8-1.7c-0.1,0.7-0.9,3.4-1,4.1c-1.9-0.4-3.4-0.6-4.4-0.7 C112.7,79.9,113.5,79.4,114.7,78.6z M100,83.2c1.9-0.5,4.1-0.9,6.5-1c-3.6,1.9-6.6,3.2-9.1,3.7c-1,0-1.5,0-1.7-0.2 C96.4,84.7,97.8,83.8,100,83.2z M100,86.3c0.9-0.3,1.9-0.7,3-1.2c0.8-0.3,2.8-1.3,5.9-2.9c2.4,0.2,4.8,0.5,7.1,0.9 c-0.1,0.3-0.2,0.8-0.4,1.7C110.4,85.2,105.1,85.7,100,86.3z M113.9,98.1c-0.4,0-0.8-0.1-1.3-0.1c-0.8-0.1-1.5-0.2-1.9-0.2 c0.8-0.3,1.9-0.6,3.2-0.9C113.9,97.3,113.9,97.7,113.9,98.1z M124.5,93.9c-3.4,0.4-6.4,0.8-8.9,1.3c0.3-2.5,0.9-5.7,1.9-9.4 c2.3-0.2,4.5-0.3,6.8-0.5c5.2,1.6,10.8,3.7,16.8,6.2C135.3,92.3,129.8,93.1,124.5,93.9z M159.4,89.5c-5.1,0.5-10.1,1.1-15,1.7 c-2.4-1.2-4.4-2.1-6.5-2.9c-2.6-1.1-5.3-2.2-7.9-3.1c3.2-0.1,6.4-0.2,9.5-0.3c9.2,0,15.2,0.1,17.9,0.2c3.4,0.1,6.4,0.3,9,0.6 c-0.3,1.1-0.6,2.3-1,3.3C163.8,89.1,161.8,89.3,159.4,89.5z M167,88.7c0.1-0.3,0.2-0.6,0.3-0.9c0.2-0.7,0.5-1.4,0.7-2.1 c0.7,0.1,1.3,0.1,2,0.2c-0.1,0.7-0.1,1.4-0.1,2c0,0.2,0,0.3,0,0.4c-0.5,0.1-1,0.1-1.6,0.2C167.9,88.6,167.5,88.7,167,88.7z M171.1,88.2C171.1,88.2,171.1,88.2,171.1,88.2c0.1-0.4,0.2-1.1,0.3-2.1c2,0.3,3.8,0.6,5.1,0.9C175.4,87.4,173.6,87.8,171.1,88.2z"/><path d="M142.3,64.1c0-0.7-0.3-1-0.8-1.2c-0.6-0.4-1.4,0.2-1.6,0.3c-0.2,0.1-0.8,0.9-1,1c-0.4,0-0.6,0-0.7,0.2 c-0.4,0.1-0.8,0.5-1.1,1c-0.3,0.6-0.4,1-0.2,1.4c0.3,0,0.5-0.3,0.7-0.8c0.2-0.5,0.5-0.7,0.9-0.8c-1.3,3.1-1.9,5.5-1.9,7.2 c0.1,1.9,1.1,3.1,2.7,2.1c0.9-0.7,1.5-1.9,1.9-3.6c0.5-1.7,0.4-3.3-0.1-4.6c0.3-0.1,0.7-0.5,0.9-0.5 C142.2,65.3,142.3,64.8,142.3,64.1z M138.5,73c0-1,0.7-2.9,1.9-5.6C140.5,69.8,139.9,71.6,138.5,73z"/><path d="M161.3,62.4c0.3,0.7,0.5,1,0.6,1.1c0.5,0.1,0.8,0,0.9-0.5c0.1-0.5,0-0.8-0.3-1C162,61.6,161.3,62,161.3,62.4z"/><polygon points="79.3,103.8 78.7,103.8 78.7,107.4 81.2,107.4 81.2,106.9 79.3,106.9 "/><rect x="81.9" y="103.8" width="0.6" height="3.7"/><polygon points="86.1,106.4 84,103.8 83.6,103.8 83.6,107.4 84.2,107.4 84.2,104.8 86.2,107.4 86.7,107.4 86.7,103.8 86.1,103.8 "/><path d="M89.3,105.9h1v0.7c-0.3,0.2-0.6,0.3-0.9,0.3c-0.4,0-0.8-0.1-1-0.4c-0.2-0.3-0.3-0.6-0.3-0.9c0-0.4,0.1-0.7,0.4-1 c0.2-0.3,0.6-0.4,1-0.4c0.2,0,0.4,0,0.5,0.1c0.2,0.1,0.3,0.2,0.5,0.3l0.4-0.4c-0.4-0.4-0.8-0.6-1.4-0.6c-0.6,0-1.1,0.2-1.4,0.6 c-0.3,0.4-0.5,0.8-0.5,1.4c0,0.3,0,0.5,0.1,0.7c0.1,0.2,0.2,0.4,0.3,0.6c0.2,0.2,0.4,0.3,0.6,0.4c0.3,0.1,0.5,0.2,0.9,0.2 c0.6,0,1.1-0.2,1.4-0.6v-1.5h-1.6V105.9z"/><path d="M94.3,105.9c0,0.3-0.1,0.6-0.3,0.8s-0.4,0.3-0.7,0.3c-0.3,0-0.5-0.1-0.7-0.3c-0.2-0.2-0.3-0.4-0.3-0.8v-2.2h-0.6v2.2 c0,0.5,0.1,0.9,0.4,1.2c0.3,0.3,0.7,0.4,1.1,0.4c0.5,0,0.9-0.1,1.2-0.4c0.3-0.3,0.5-0.7,0.5-1.2v-2.2h-0.6V105.9z"/><rect x="95.9" y="103.8" width="0.6" height="3.7"/><path d="M99.9,105.5c-0.2-0.1-0.3-0.1-0.5-0.2c-0.2,0-0.3-0.1-0.6-0.1c-0.3,0-0.5-0.1-0.7-0.2c-0.2-0.1-0.2-0.2-0.2-0.4 c0-0.2,0.1-0.3,0.2-0.4c0.2-0.1,0.4-0.2,0.6-0.2c0.2,0,0.4,0,0.5,0.1c0.2,0.1,0.3,0.2,0.4,0.3l0.4-0.3c-0.3-0.4-0.7-0.6-1.4-0.6 c-0.2,0-0.3,0-0.5,0.1c-0.2,0-0.3,0.1-0.5,0.2c-0.1,0.1-0.3,0.2-0.3,0.3c-0.1,0.1-0.1,0.3-0.1,0.5c0,0.2,0,0.3,0.1,0.4 c0.1,0.1,0.1,0.2,0.2,0.3c0.1,0.1,0.2,0.1,0.3,0.2c0.1,0.1,0.3,0.1,0.4,0.1c0.1,0,0.3,0.1,0.4,0.1c0.3,0,0.5,0.1,0.7,0.2 c0.2,0.1,0.3,0.2,0.3,0.4c0,0.1,0,0.3-0.1,0.4c-0.1,0.1-0.2,0.2-0.3,0.2c-0.1,0-0.3,0.1-0.4,0.1c-0.5,0-0.9-0.2-1.1-0.6l-0.4,0.3 c0.3,0.6,0.8,0.8,1.6,0.8c0.3,0,0.5,0,0.7-0.1c0.2-0.1,0.4-0.2,0.6-0.4c0.2-0.2,0.2-0.4,0.2-0.7c0-0.2,0-0.4-0.1-0.5 C100.1,105.7,100,105.6,99.9,105.5z"/><polygon points="100.8,104.3 102,104.3 102,107.4 102.6,107.4 102.6,104.3 103.8,104.3 103.8,103.8 100.8,103.8 "/><path d="M104.4,106.9c-0.1,0-0.1,0-0.2,0c-0.1,0-0.1,0-0.2,0.1c0,0.1-0.1,0.1-0.1,0.2c0,0.1,0.1,0.2,0.2,0.3l-0.1,0.5h0.3 c0-0.1,0-0.2,0.1-0.2c0-0.1,0-0.1,0.1-0.2s0-0.1,0-0.1c0,0,0-0.1,0-0.1c0,0,0,0,0-0.1c0,0,0,0,0,0c0,0,0,0,0,0c0-0.1,0-0.1-0.1-0.2 C104.6,106.9,104.5,106.9,104.4,106.9z"/><rect x="106.9" y="103.8" width="0.6" height="3.7"/><polygon points="111.1,106.4 109,103.8 108.6,103.8 108.6,107.4 109.2,107.4 109.2,104.8 111.2,107.4 111.7,107.4 111.7,103.8 111.1,103.8 "/><path d="M115.1,105.5c-0.2-0.1-0.3-0.1-0.5-0.2c-0.2,0-0.3-0.1-0.6-0.1c-0.3,0-0.5-0.1-0.7-0.2c-0.2-0.1-0.2-0.2-0.2-0.4 c0-0.2,0.1-0.3,0.2-0.4c0.2-0.1,0.4-0.2,0.6-0.2c0.2,0,0.4,0,0.5,0.1c0.2,0.1,0.3,0.2,0.4,0.3l0.4-0.3c-0.3-0.4-0.7-0.6-1.4-0.6 c-0.2,0-0.3,0-0.5,0.1c-0.2,0-0.3,0.1-0.5,0.2c-0.1,0.1-0.3,0.2-0.3,0.3c-0.1,0.1-0.1,0.3-0.1,0.5c0,0.2,0,0.3,0.1,0.4 c0.1,0.1,0.1,0.2,0.2,0.3c0.1,0.1,0.2,0.1,0.3,0.2c0.1,0.1,0.3,0.1,0.4,0.1c0.1,0,0.3,0.1,0.4,0.1c0.3,0,0.5,0.1,0.7,0.2 c0.2,0.1,0.3,0.2,0.3,0.4c0,0.1,0,0.3-0.1,0.4c-0.1,0.1-0.2,0.2-0.3,0.2c-0.1,0-0.3,0.1-0.4,0.1c-0.5,0-0.9-0.2-1.1-0.6l-0.4,0.3 c0.3,0.6,0.8,0.8,1.6,0.8c0.3,0,0.5,0,0.7-0.1c0.2-0.1,0.4-0.2,0.6-0.4c0.2-0.2,0.2-0.4,0.2-0.7c0-0.2,0-0.4-0.1-0.5 C115.4,105.7,115.2,105.6,115.1,105.5z"/><polygon points="116,104.3 117.2,104.3 117.2,107.4 117.8,107.4 117.8,104.3 119,104.3 119,103.8 116,103.8 "/><path d="M121.7,106.1c0.3,0,0.6-0.2,0.8-0.4c0.2-0.2,0.2-0.5,0.2-0.8c0-0.3-0.1-0.6-0.3-0.9c-0.2-0.2-0.5-0.4-1-0.4 c-0.2,0-0.5,0-0.9,0c-0.4,0-0.7,0-0.9,0v3.7h0.6v-1.3h0.8l1.1,1.3h0.7l-0.1-0.1L121.7,106.1z M120.3,105.6v-1.3h1.1 c0.2,0,0.4,0.1,0.5,0.2c0.1,0.1,0.2,0.3,0.2,0.5c0,0.2-0.1,0.3-0.2,0.5c-0.1,0.1-0.3,0.2-0.5,0.2H120.3z"/><path d="M126.1,105.9c0,0.3-0.1,0.6-0.3,0.8s-0.4,0.3-0.7,0.3c-0.3,0-0.5-0.1-0.7-0.3c-0.2-0.2-0.3-0.4-0.3-0.8v-2.2h-0.6v2.2 c0,0.5,0.1,0.9,0.4,1.2c0.3,0.3,0.7,0.4,1.1,0.4c0.5,0,0.9-0.1,1.2-0.4c0.3-0.3,0.5-0.7,0.5-1.2v-2.2h-0.6V105.9z"/><path d="M129.9,106.9c-0.2,0.1-0.4,0.1-0.5,0.1c-0.4,0-0.8-0.1-1-0.4c-0.2-0.3-0.3-0.6-0.3-1c0-0.4,0.1-0.7,0.3-1 c0.2-0.3,0.6-0.4,1-0.4c0.4,0,0.7,0.1,1,0.4l0.4-0.4c-0.4-0.4-0.8-0.6-1.3-0.6c-0.3,0-0.6,0.1-0.9,0.2c-0.3,0.1-0.5,0.3-0.6,0.4 c-0.2,0.2-0.3,0.4-0.4,0.6c-0.1,0.2-0.1,0.5-0.1,0.7c0,0.2,0,0.5,0.1,0.7c0.1,0.2,0.2,0.4,0.4,0.6c0.2,0.2,0.4,0.3,0.6,0.4 c0.3,0.1,0.5,0.2,0.9,0.2c0.6,0,1-0.2,1.4-0.5l-0.4-0.4C130.3,106.7,130.1,106.8,129.9,106.9z"/><polygon points="131.1,104.3 132.4,104.3 132.4,107.4 133,107.4 133,104.3 134.2,104.3 134.2,103.8 131.1,103.8 "/><path d="M136.4,103.7c-0.6,0-1,0.2-1.4,0.5c-0.4,0.4-0.5,0.8-0.5,1.4c0,0.2,0,0.5,0.1,0.7c0.1,0.2,0.2,0.4,0.3,0.6 c0.1,0.2,0.3,0.3,0.6,0.4c0.2,0.1,0.5,0.2,0.8,0.2c0.3,0,0.6-0.1,0.8-0.2c0.2-0.1,0.4-0.2,0.6-0.4c0.1-0.2,0.3-0.4,0.3-0.6 c0.1-0.2,0.1-0.5,0.1-0.7c0-0.5-0.2-1-0.5-1.4C137.5,103.9,137,103.7,136.4,103.7z M137.4,106.6c-0.2,0.3-0.5,0.4-1,0.4 c-0.2,0-0.4,0-0.6-0.1c-0.2-0.1-0.3-0.2-0.4-0.3c-0.1-0.1-0.2-0.3-0.2-0.4c-0.1-0.2-0.1-0.3-0.1-0.5c0-0.4,0.1-0.8,0.3-1 c0.2-0.3,0.6-0.4,1-0.4c0.3,0,0.5,0.1,0.7,0.2c0.2,0.1,0.3,0.3,0.4,0.5c0.1,0.2,0.1,0.4,0.1,0.7C137.7,106,137.6,106.3,137.4,106.6 z"/><path d="M141.1,106.1c0.3,0,0.6-0.2,0.8-0.4c0.2-0.2,0.2-0.5,0.2-0.8c0-0.3-0.1-0.6-0.3-0.9c-0.2-0.2-0.5-0.4-1-0.4 c-0.2,0-0.5,0-0.9,0c-0.4,0-0.7,0-0.9,0v3.7h0.6v-1.3h0.8l1.1,1.3h0.7l-0.1-0.1L141.1,106.1z M139.7,105.6v-1.3h1.1 c0.2,0,0.4,0.1,0.5,0.2c0.1,0.1,0.2,0.3,0.2,0.5c0,0.2-0.1,0.3-0.2,0.5c-0.1,0.1-0.3,0.2-0.5,0.2H139.7z"/><path d="M143.3,106.9c-0.1,0-0.1,0-0.2,0c-0.1,0-0.1,0-0.2,0.1c0,0.1-0.1,0.1-0.1,0.2c0,0.1,0.1,0.2,0.2,0.3L143,108h0.3 c0-0.1,0-0.2,0.1-0.2c0-0.1,0-0.1,0.1-0.2c0,0,0-0.1,0-0.1c0,0,0-0.1,0-0.1c0,0,0,0,0-0.1c0,0,0,0,0,0c0,0,0,0,0,0 c0-0.1,0-0.1-0.1-0.2C143.4,106.9,143.4,106.9,143.3,106.9z"/><path d="M148.5,104.3c-0.1-0.2-0.3-0.3-0.6-0.4c-0.2-0.1-0.5-0.2-0.8-0.2h-1.4v3.7h1.4c0.3,0,0.6-0.1,0.8-0.2 c0.2-0.1,0.4-0.3,0.6-0.4c0.1-0.2,0.3-0.4,0.3-0.6c0.1-0.2,0.1-0.4,0.1-0.7c0-0.2,0-0.5-0.1-0.7 C148.8,104.7,148.7,104.5,148.5,104.3z M148.1,106.5c-0.2,0.3-0.5,0.4-1,0.4h-0.8v-2.6h0.8c0.3,0,0.5,0.1,0.7,0.2 c0.2,0.1,0.3,0.3,0.4,0.5c0.1,0.2,0.1,0.4,0.1,0.6C148.4,105.9,148.3,106.2,148.1,106.5z"/><path d="M150.9,103.8l-1.7,3.7h0.6l0.3-0.8h2l0.4,0.8h0.6l-1.7-3.7H150.9z M150.5,106.1l0.8-1.8l0.8,1.8H150.5z"/><polygon points="154.8,105.4 153.8,103.8 153.1,103.8 153.1,103.8 154.5,105.9 154.5,107.4 155.1,107.4 155.1,105.9 156.6,103.8 156.6,103.8 155.9,103.8 "/><path d="M160,104.3c-0.1-0.2-0.3-0.3-0.6-0.4c-0.2-0.1-0.5-0.2-0.8-0.2h-1.4v3.7h1.4c0.3,0,0.6-0.1,0.8-0.2 c0.2-0.1,0.4-0.3,0.6-0.4c0.1-0.2,0.3-0.4,0.3-0.6c0.1-0.2,0.1-0.4,0.1-0.7c0-0.2,0-0.5-0.1-0.7C160.3,104.7,160.2,104.5,160,104.3 z M159.6,106.5c-0.2,0.3-0.5,0.4-1,0.4h-0.8v-2.6h0.8c0.3,0,0.5,0.1,0.7,0.2c0.2,0.1,0.3,0.3,0.4,0.5c0.1,0.2,0.1,0.4,0.1,0.6 C159.9,105.9,159.8,106.2,159.6,106.5z"/><path d="M163.3,106.1c0.3,0,0.6-0.2,0.8-0.4c0.2-0.2,0.2-0.5,0.2-0.8c0-0.3-0.1-0.6-0.3-0.9c-0.2-0.2-0.5-0.4-1-0.4 c-0.2,0-0.5,0-0.9,0c-0.4,0-0.7,0-0.9,0v3.7h0.6v-1.3h0.8l1.1,1.3h0.7l-0.1-0.1L163.3,106.1z M161.9,105.6v-1.3h1.1 c0.2,0,0.4,0.1,0.5,0.2c0.1,0.1,0.2,0.3,0.2,0.5c0,0.2-0.1,0.3-0.2,0.5c-0.1,0.1-0.3,0.2-0.5,0.2H161.9z"/><polygon points="165.8,105.9 167.8,105.9 167.8,105.3 165.8,105.3 165.8,104.3 167.9,104.3 167.9,103.8 165.2,103.8 165.2,107.4 167.9,107.4 167.9,106.9 165.8,106.9 "/><path d="M170.1,103.8l-1.7,3.7h0.6l0.3-0.8h2l0.4,0.8h0.6l-1.7-3.7H170.1z M169.6,106.1l0.8-1.8l0.8,1.8H169.6z"/><polygon points="174.9,105.5 173.7,103.8 173,103.8 173,107.5 173.6,107.5 173.6,104.6 174.8,106.4 175,106.4 176.2,104.6 176.2,107.5 176.8,107.5 176.8,103.8 176.1,103.8 "/><polygon points="178.5,105.9 180.5,105.9 180.5,105.3 178.5,105.3 178.5,104.3 180.6,104.3 180.6,103.8 177.9,103.8 177.9,107.4 180.6,107.4 180.6,106.9 178.5,106.9 "/><path d="M184.6,107.3l-1.1-1.2c0.3,0,0.6-0.2,0.8-0.4c0.2-0.2,0.2-0.5,0.2-0.8c0-0.3-0.1-0.6-0.3-0.9c-0.2-0.2-0.5-0.4-1-0.4 c-0.2,0-0.5,0-0.9,0c-0.4,0-0.7,0-0.9,0v3.7h0.6v-1.3h0.8l1.1,1.3h0.7L184.6,107.3z M182.1,105.6v-1.3h1.1c0.2,0,0.4,0.1,0.5,0.2 c0.1,0.1,0.2,0.3,0.2,0.5c0,0.2-0.1,0.3-0.2,0.5c-0.1,0.1-0.3,0.2-0.5,0.2H182.1z"/></g></svg>